<svg xmlns="http://www.w3.org/2000/svg" viewBox="0 0 1480 540" width="1480" height="540" font-family="Inter, system-ui, sans-serif" role="img" aria-label="Guard proxy: the recording stays on the rover; Whisper transcribes it and the guard proxy replaces personal information, so Gemini receives clean text and a photo; the proxy checks the answer before ElevenLabs converts it into speech."><title>Guard proxy: the recording stays on the rover; Whisper transcribes it and the guard proxy replaces personal information, so Gemini receives clean text and a photo; the proxy checks the answer before ElevenLabs converts it into speech.</title><defs><marker id="head" viewBox="0 0 10 10" refX="9" refY="5" markerWidth="8" markerHeight="8" orient="auto"><path d="M0,0 L10,5 L0,10 z" fill="#faf7f4"/></marker><marker id="tail" viewBox="0 0 10 10" refX="1" refY="5" markerWidth="8" markerHeight="8" orient="auto"><path d="M10,0 L0,5 L10,10 z" fill="#faf7f4"/></marker></defs><rect width="1480" height="540" fill="none"/><rect x="250" y="20" width="1210" height="230" rx="20" fill="rgba(213, 92, 43, 0.2)"/><text x="270" y="50" font-size="15" font-weight="700" letter-spacing="0.6" fill="#f4875a">Remote Services</text><rect x="250" y="280" width="1210" height="230" rx="20" fill="rgba(137, 164, 111, 0.18)"/><text x="270" y="310" font-size="15" font-weight="700" letter-spacing="0.6" fill="#b3cf96">Local Processing</text><rect x="30" y="330" width="190" height="130" rx="16" fill="#3a1e17" stroke="#faf7f4" stroke-width="2"/><g transform="translate(103.0,350) scale(1.8333333333333333)" fill="none" stroke="#faf7f4" stroke-width="1.6" stroke-linecap="round" stroke-linejoin="round"><path d="M9 5a3 3 0 0 1 3 -3a3 3 0 0 1 3 3v5a3 3 0 0 1 -3 3a3 3 0 0 1 -3 -3l0 -5" /> <path d="M5 10a7 7 0 0 0 14 0" /> <path d="M8 21l8 0" /> <path d="M12 17l0 4" /></g><text x="125.0" y="430" text-anchor="middle" font-size="20" font-weight="600" fill="#faf7f4">Question</text><rect x="275" y="330" width="190" height="130" rx="16" fill="#3a1e17" stroke="#faf7f4" stroke-width="2"/><g transform="translate(348.0,350) scale(1.8333333333333333)" fill="none" stroke="#faf7f4" stroke-width="1.6" stroke-linecap="round" stroke-linejoin="round"><path d="M14 3v4a1 1 0 0 0 1 1h4" /> <path d="M17 21h-10a2 2 0 0 1 -2 -2v-14a2 2 0 0 1 2 -2h7l5 5v11a2 2 0 0 1 -2 2" /> <path d="M10 16a1 1 0 1 0 2 0a1 1 0 1 0 -2 0" /> <path d="M12 16l0 -5l2 1" /></g><text x="370.0" y="430" text-anchor="middle" font-size="20" font-weight="600" fill="#faf7f4">Recording</text><rect x="505" y="330" width="190" height="130" rx="16" fill="#3a1e17" stroke="#faf7f4" stroke-width="2"/><g transform="translate(578.0,350) scale(1.8333333333333333)" fill="none" stroke="#faf7f4" stroke-width="1.6" stroke-linecap="round" stroke-linejoin="round"><path d="M4 8v-2a2 2 0 0 1 2 -2h2" /> <path d="M4 16v2a2 2 0 0 0 2 2h2" /> <path d="M16 4h2a2 2 0 0 1 2 2v2" /> <path d="M16 20h2a2 2 0 0 0 2 -2v-2" /> <path d="M12 16v-7" /> <path d="M9 9h6" /></g><text x="600.0" y="430" text-anchor="middle" font-size="20" font-weight="600" fill="#faf7f4">Transcribe</text><rect x="735" y="330" width="190" height="130" rx="16" fill="#3a1e17" stroke="#faf7f4" stroke-width="2"/><g transform="translate(808.0,350) scale(1.8333333333333333)" fill="none" stroke="#faf7f4" stroke-width="1.6" stroke-linecap="round" stroke-linejoin="round"><path d="M12 3a12 12 0 0 0 8.5 3a12 12 0 0 1 -8.5 15a12 12 0 0 1 -8.5 -15a12 12 0 0 0 8.5 -3" /> <path d="M11 11a1 1 0 1 0 2 0a1 1 0 1 0 -2 0" /> <path d="M12 12l0 2.5" /></g><text x="830.0" y="430" text-anchor="middle" font-size="20" font-weight="600" fill="#faf7f4">Guard proxy</text><rect x="965" y="330" width="190" height="130" rx="16" fill="#3a1e17" stroke="#faf7f4" stroke-width="2"/><g transform="translate(1038.0,350) scale(1.8333333333333333)" fill="none" stroke="#faf7f4" stroke-width="1.6" stroke-linecap="round" stroke-linejoin="round"><path d="M11.46 20.846a12 12 0 0 1 -7.96 -14.846a12 12 0 0 0 8.5 -3a12 12 0 0 0 8.5 3a12 12 0 0 1 -.09 7.06" /> <path d="M15 19l2 2l4 -4" /></g><text x="1060.0" y="430" text-anchor="middle" font-size="20" font-weight="600" fill="#faf7f4">Guard proxy</text><rect x="1195" y="330" width="240" height="130" rx="16" fill="#3a1e17" stroke="#faf7f4" stroke-width="2"/><g transform="translate(1293.0,350) scale(1.8333333333333333)" fill="none" stroke="#faf7f4" stroke-width="1.6" stroke-linecap="round" stroke-linejoin="round"><path d="M15 8a5 5 0 0 1 0 8" /> <path d="M17.7 5a9 9 0 0 1 0 14" /> <path d="M6 15h-2a1 1 0 0 1 -1 -1v-4a1 1 0 0 1 1 -1h2l3.5 -4.5a.8 .8 0 0 1 1.5 .5v14a.8 .8 0 0 1 -1.5 .5l-3.5 -4.5" /></g><text x="1315.0" y="430" text-anchor="middle" font-size="20" font-weight="600" fill="#faf7f4">Speaker</text><rect x="850" y="70" width="190" height="130" rx="16" fill="#3a1e17" stroke="#faf7f4" stroke-width="2"/><g transform="translate(923.0,90) scale(1.8333333333333333)" fill="none" stroke="#faf7f4" stroke-width="1.6" stroke-linecap="round" stroke-linejoin="round"><path d="M16 18a2 2 0 0 1 2 2a2 2 0 0 1 2 -2a2 2 0 0 1 -2 -2a2 2 0 0 1 -2 2m0 -12a2 2 0 0 1 2 2a2 2 0 0 1 2 -2a2 2 0 0 1 -2 -2a2 2 0 0 1 -2 2m-7 12a6 6 0 0 1 6 -6a6 6 0 0 1 -6 -6a6 6 0 0 1 -6 6a6 6 0 0 1 6 6" /></g><text x="945.0" y="170" text-anchor="middle" font-size="20" font-weight="600" fill="#faf7f4">Gemini</text><rect x="1195" y="70" width="240" height="130" rx="16" fill="#3a1e17" stroke="#faf7f4" stroke-width="2"/><g transform="translate(1293.0,90) scale(1.8333333333333333)" fill="none" stroke="#faf7f4" stroke-width="1.6" stroke-linecap="round" stroke-linejoin="round"><path d="M18 8a3 3 0 0 1 0 6" /> <path d="M10 8v11a1 1 0 0 1 -1 1h-1a1 1 0 0 1 -1 -1v-5" /> <path d="M12 8l4.524 -3.77a.9 .9 0 0 1 1.476 .692v12.156a.9 .9 0 0 1 -1.476 .692l-4.524 -3.77h-8a1 1 0 0 1 -1 -1v-4a1 1 0 0 1 1 -1h8" /></g><text x="1315.0" y="170" text-anchor="middle" font-size="20" font-weight="600" fill="#faf7f4">ElevenLabs</text><polyline points="220,395.0 273,395.0" fill="none" stroke="#faf7f4" stroke-width="2" marker-end="url(#head)"/><polyline points="465,395.0 503,395.0" fill="none" stroke="#faf7f4" stroke-width="2" marker-end="url(#head)"/><polyline points="695,395.0 733,395.0" fill="none" stroke="#faf7f4" stroke-width="2" marker-end="url(#head)"/><polyline points="830,330 890,202" fill="none" stroke="#faf7f4" stroke-width="2" marker-end="url(#head)"/><polyline points="1000,200 1060,328" fill="none" stroke="#faf7f4" stroke-width="2" marker-end="url(#head)"/><polyline points="1155,360 1230,202" fill="none" stroke="#faf7f4" stroke-width="2" marker-end="url(#head)"/><polyline points="1340,200 1340,328" fill="none" stroke="#faf7f4" stroke-width="2" marker-end="url(#head)"/></svg>
